<svg width="544" height="544" viewBox="0 0 544 544" fill="none" xmlns="http://www.w3.org/2000/svg">
<circle cx="272" cy="272" r="272" fill="#B0E7D3"/>
<circle cx="271.946" cy="225.946" r="122.946" fill="#229F90"/>
<path d="M156.4 264.188H271.534V375.209H222.619C222.619 375.209 221.288 346.633 201.507 327.341C192.093 318.16 188.244 310.2 177.609 298.958C164.152 284.732 156.4 264.188 156.4 264.188Z" fill="#229F90"/>
<path d="M386.67 264.188H271.536V375.209H320.451C320.451 375.209 321.782 346.633 341.563 327.341C350.978 318.16 354.826 310.2 365.461 298.958C378.918 284.732 386.67 264.188 386.67 264.188Z" fill="#229F90"/>
<rect x="227.127" y="384.256" width="89.6399" height="13.9805" rx="6.99027" fill="#229F90"/>
<rect x="239.463" y="426.197" width="64.146" height="14.8029" rx="7.40146" fill="#229F90"/>
<rect x="227.127" y="404.815" width="89.6399" height="14.8029" rx="7.40146" fill="#229F90"/>
</svg>
